PathFileType	4	(X/Y/Z)	Run_200 02
DataRate	CameraRate	NumFrames	NumMarkers	Units	OrigDataRate	OrigDataStartFrame	OrigNumFrames
100	100	7	42	mm	100	9	128
Frame#	Time	RASI			LPSI			RPSI			RTH2			RTH3			LTH1			LTH2			LTH3			RTB1			RTB2			LTB1			LTB2			LTB3			RCAL			RMT5			LCAL			LTOE			LMT5			LACR			RACR			CLAV			C7			RUA1			RUA2			RUA3			RLEL			LUA1			LUA2			LUA3			LLEL			RFAsuperior			RFAradius			RFAulna			LFAsuperior			LFAradius			LFAulna			RTOE			RTH1			LMEL			RTB3			RMEL			LASI			
		X1	Y1	Z1	X2	Y2	Z2	X3	Y3	Z3	X4	Y4	Z4	X5	Y5	Z5	X6	Y6	Z6	X7	Y7	Z7	X8	Y8	Z8	X9	Y9	Z9	X10	Y10	Z10	X11	Y11	Z11	X12	Y12	Z12	X13	Y13	Z13	X14	Y14	Z14	X15	Y15	Z15	X16	Y16	Z16	X17	Y17	Z17	X18	Y18	Z18	X19	Y19	Z19	X20	Y20	Z20	X21	Y21	Z21	X22	Y22	Z22	X23	Y23	Z23	X24	Y24	Z24	X25	Y25	Z25	X26	Y26	Z26	X27	Y27	Z27	X28	Y28	Z28	X29	Y29	Z29	X30	Y30	Z30	X31	Y31	Z31	X32	Y32	Z32	X33	Y33	Z33	X34	Y34	Z34	X35	Y35	Z35	X36	Y36	Z36	X37	Y37	Z37	X38	Y38	Z38	X39	Y39	Z39	X40	Y40	Z40	X41	Y41	Z41	X42	Y42	Z42	

1	0.2	1085.475371	1087.313204	-230.325167	943.873978	1138.211708	-424.202565	930.649357	1134.99148	-311.312135	1013.022466	810.061834	-203.288477	1094.521355	674.514936	-210.123818	1049.036274	940.765842	-525.727901	945.125509	803.004464	-490.936659	976.31175	661.8438640000001	-475.173244	1200.896339	437.488733	-279.456296	1127.109798	381.283013	-213.077828	923.443539	436.065234	-403.276961	793.769911	408.232122	-464.874442	759.586734	292.475471	-404.157433	1099.183342	93.586502	-299.067062	1302.241212	93.398466	-242.165882	584.789651	291.926396	-396.11225	712.560256	95.759719	-359.105044	658.104023	96.70792400000001	-456.067896	1087.290817	1572.340783	-507.761915	1067.588031	1554.924727	-189.794796	1134.59039	1519.358876	-312.889099	1020.928169	1591.269199	-356.232581	927.482926	1501.310344	-155.168578	941.851596	1435.328829	-111.213757	846.121662	1388.823525	-94.244495	789.962476	1344.471797	-80.06982000000001	1001.592588	1474.647119	-580.873069	1035.508735	1399.470161	-600.058974	971.417683	1330.605848	-635.9112710000001	963.027062	1261.081483	-653.300384	849.267115	1254.764537	-56.483726	990.35685	1148.314772	-102.070419	938.518675	1117.471368	-69.133038	1035.488406	1231.074112	-625.116572	1170.022235	1288.684589	-507.950226	1185.232781	1218.503957	-522.265323	1332.563332	145.931929	-333.447037	1022.621439	965.952577	-177.396151	928.594873	1243.241552	-567.739323	1195.90072	249.324527	-296.671145	804.714337	1313.887487	-164.149754	1106.742708	1076.390926	-472.104645	
2	0.21	1085.696276	1082.299718	-229.795618	943.4000610000001	1132.506775	-423.60044	930.481724	1129.412739	-310.768351	1013.460104	804.719174	-203.069786	1096.092074	669.900546	-210.548518	1050.414781	935.467883	-524.670476	949.223389	795.9368459999999	-489.713525	983.644066	655.456293	-474.393249	1198.707696	430.980029	-279.831936	1124.307898	376.082303	-213.113001	928.69688	431.142234	-403.384134	797.429736	410.342617	-465.07815	757.921497	295.756848	-405.771065	1089.86309	91.74638299999999	-299.640802	1292.3886	83.48522699999999	-243.920201	582.808122	302.738184	-396.738659	703.576945	101.639373	-361.986107	647.115099	104.700446	-458.064039	1086.29712	1567.66323	-506.368107	1068.00968	1549.267525	-188.637501	1134.433613	1514.037131	-312.05107	1020.581175	1586.07701	-354.606807	928.036369	1495.219574	-153.168001	942.963627	1429.28587	-109.569785	847.491821	1382.33323	-92.05726300000001	791.7931129999999	1337.468111	-77.689008	999.64199	1471.11953	-579.321586	1032.944856	1395.776949	-598.972212	968.155721	1327.568375	-634.674676	959.415962	1257.947193	-652.089478	852.2045460000001	1248.419354	-54.510304	994.144591	1143.546678	-100.767523	942.896837	1112.056713	-67.639015	1031.513324	1226.408584	-624.503011	1167.812671	1280.820681	-507.810628	1181.533386	1210.461568	-522.458266	1324.185378	135.592369	-335.101263	1022.142618	960.745628	-176.529763	925.236838	1240.039037	-566.820775	1190.066887	242.997523	-297.18403	806.239017	1306.937746	-161.813515	1106.29445	1072.043169	-472.473593	
3	0.22	1085.766238	1076.255382	-229.232894	942.854813	1125.854608	-422.908562	930.255691	1122.54622	-310.193407	1013.417171	798.450948	-203.324959	1097.160757	664.3868199999999	-210.724826	1051.583536	929.4365790000001	-523.799928	953.410634	788.095967	-488.444564	991.202477	648.433722	-473.994656	1195.769964	423.09642	-279.70105	1119.798158	369.919562	-213.242098	934.8407539999999	425.783152	-404.454791	802.0451420000001	412.333292	-465.312971	757.6033200000001	298.93261	-407.48248	1077.238657	91.409081	-300.86788	1278.409206	71.55894600000001	-244.971768	582.129226	313.07664	-396.602515	697.04802	107.890779	-365.637806	638.6774	113.604093	-460.85726	1085.080425	1561.89464	-505.028613	1068.45987	1542.538901	-187.507261	1134.190886	1507.655666	-311.335168	1020.095166	1579.89686	-353.06597	928.71221	1487.900376	-150.728987	944.470236	1421.881711	-107.765374	849.3907349999999	1374.295862	-89.419894	794.198564	1328.933505	-74.786749	997.528449	1466.442639	-577.84453	1030.182671	1390.813013	-597.790732	964.648001	1323.297408	-633.289113	955.390814	1253.720649	-650.7024259999999	855.78117	1240.57992	-52.14423	998.5185729999999	1137.40869	-99.425488	947.975054	1105.248884	-65.956332	1027.049268	1220.438893	-623.929795	1165.316268	1271.106178	-507.648951	1177.468646	1200.633649	-523.166234	1313.07316	121.119254	-336.59147	1021.519984	954.675261	-175.791283	922.0302830000001	1235.712146	-565.796451	1182.055161	235.292102	-297.499936	808.029179	1298.482873	-158.769255	1106.001014	1066.75108	-472.929466	
4	0.23	1085.74818	1069.435537	-228.384481	942.1484	1118.409787	-422.163002	929.734642	1114.786237	-309.316909	1012.830752	791.709522	-203.752973	1097.717852	658.040621	-210.532865	1052.503494	922.725533	-523.030624	957.73225	779.480161	-487.30769	998.893854	640.773912	-474.150042	1192.878026	414.613376	-279.383811	1114.219757	363.420885	-213.996907	941.83663	420.086784	-406.426053	807.616617	414.024906	-465.48257	758.731295	301.765876	-409.202067	1062.098942	92.00431	-302.981617	1261.593444	60.668794	-245.075426	583.052678	322.770494	-395.876314	692.61905	113.986618	-369.943852	632.862586	122.934805	-464.263594	1083.544677	1555.185108	-503.849593	1068.92696	1534.813953	-186.344923	1133.90843	1500.293858	-310.69281	1019.355528	1572.764598	-351.642079	929.540465	1479.398406	-147.912933	946.370412	1413.161943	-105.760202	851.813143	1364.776984	-86.385637	797.176323	1318.910566	-71.440395	995.097369	1460.569778	-576.3356240000001	1027.230938	1384.593013	-596.538781	960.983428	1317.78204	-631.829888	950.977271	1248.408222	-649.2339909999999	859.979395	1231.308055	-49.427399	1003.485827	1129.934152	-98.089007	953.701815	1097.09772	-64.07308999999999	1022.105799	1213.207418	-623.433117	1162.468893	1259.65423	-507.505952	1172.974623	1189.138697	-524.370953	1299.652083	105.462237	-337.843886	1020.961874	947.670873	-175.369591	918.577452	1230.327792	-564.61395	1172.54207	226.879841	-298.028764	810.2127369999999	1288.602385	-155.196769	1105.923442	1060.386138	-472.728956	
5	0.24	1085.669421	1062.148813	-227.202581	941.21471	1110.35027	-421.544168	928.984902	1106.776331	-308.394929	1012.18546	785.104066	-203.926477	1098.34238	651.425719	-210.201869	1053.171888	915.385092	-522.09725	962.213606	770.060244	-486.417289	1006.645796	632.533446	-474.788982	1190.832657	406.797889	-279.716507	1109.232006	357.939853	-215.503478	949.589196	414.236458	-408.761588	814.191026	415.19768	-465.502097	761.32248	304.10369	-410.902824	1045.254193	92.887339	-305.325697	1243.505146	53.64339	-244.600532	585.773726	331.66923	-394.777358	690.042385	119.543548	-374.763188	629.420074	132.209613	-468.034301	1081.623261	1547.727923	-503.092643	1069.389576	1526.231755	-185.021404	1133.649851	1492.166186	-310.052565	1018.314124	1564.881821	-350.37305	930.473756	1469.721391	-144.920649	948.655658	1403.175031	-103.491746	854.746275	1353.855789	-83.01227	800.725049	1307.458813	-67.73285199999999	992.216809	1453.506848	-574.731702	1024.083027	1377.15871	-595.266581	957.184357	1311.066761	-630.320812	946.188746	1242.073359	-647.751447	864.792768	1220.687795	-46.389671	1009.03793	1121.180231	-96.72559099999999	960.02879	1087.656443	-62.04544	1016.698089	1204.796984	-623.046247	1159.230394	1246.516427	-507.506173	1167.997207	1176.103225	-526.0291130000001	1284.196599	92.662707	-338.939238	1020.446399	940.043152	-175.13184	914.491029	1224.059196	-563.179313	1162.392264	219.29967	-299.317641	812.976093	1277.357515	-151.331978	1105.948386	1053.123382	-471.668669	
6	0.25	1085.383593	1054.629802	-226.021585	939.980742	1101.975662	-421.284538	928.350364	1099.030148	-308.322797	1012.097269	778.989121	-203.60442	1099.847123	645.295696	-210.042074	1053.670251	907.559849	-520.771333	966.841122	759.9682749999999	-485.789574	1014.415155	623.97362	-475.594509	1189.678759	400.690371	-281.557967	1106.432631	354.714226	-217.27766	957.9884960000001	408.541175	-410.871792	821.853856	415.751805	-465.473086	765.357545	305.987042	-412.570985	1027.358202	93.861541	-306.985385	1225.087011	50.995506	-244.151247	590.304882	339.652167	-393.507476	689.449403	124.520631	-379.915616	628.190633	141.105921	-471.969945	1079.329199	1539.792994	-502.951448	1069.800728	1517.080583	-183.43011	1133.426644	1483.707478	-309.38969	1017.114838	1556.745173	-349.236751	931.45344	1458.907995	-141.72424	951.360278	1391.956349	-101.00821	858.221494	1341.595687	-79.39496800000001	804.883086	1294.705312	-63.745415	988.875801	1445.390772	-573.055267	1020.698746	1368.678754	-594.0361329999999	953.197126	1303.299	-628.713494	941.029165	1234.884861	-646.2767669999999	870.223116	1208.806512	-43.099502	1015.146741	1111.202562	-95.286012	966.9310829999999	1076.974926	-60.005784	1010.854121	1195.34871	-622.788267	1155.616311	1231.73309	-507.755421	1162.477907	1161.600241	-528.053991	1267.139736	84.816638	-339.920841	1019.648758	932.551882	-174.761915	909.7909990000001	1217.135539	-561.495478	1152.040553	214.102476	-301.566879	816.43546	1264.843221	-147.299624	1105.779156	1045.391541	-470.326775	
7	0.26	1084.527636	1047.146314	-225.15511	938.309346	1093.754293	-421.436325	927.792327	1091.72708	-309.570767	1012.730176	773.2359760000001	-203.021832	1102.563896	640.022549	-210.132015	1054.118376	899.649017	-519.192489	971.533213	749.738382	-485.340705	1022.227512	615.633379	-476.267151	1188.513188	396.235784	-284.892643	1105.726493	353.668309	-218.677794	967.020315	403.304202	-412.541144	830.677953	415.824243	-465.676472	770.862857	307.600163	-414.170411	1008.883868	95.001666	-307.629265	1206.495582	50.927308	-244.053783	596.523173	346.613438	-392.275866	691.192723	129.070434	-385.108972	629.376022	149.405768	-475.952545	1076.791177	1531.726845	-503.289114	1070.066544	1507.834769	-181.649621	1133.172611	1475.496609	-308.756622	1016.072163	1549.045364	-348.129066	932.511886	1447.067076	-137.938022	954.581655	1379.637666	-98.543451	862.337935	1328.083025	-75.69814599999999	809.762087	1280.872104	-59.576108	985.221045	1436.629904	-571.365515	1017.017322	1359.575081	-592.878212	948.929023	1294.818269	-626.916925	935.507343	1227.168119	-644.8067579999999	876.2915410000001	1195.734998	-39.680907	1021.815741	1100.037817	-93.81421400000001	974.4263130000001	1065.127965	-58.093398	1004.579715	1185.082055	-622.624111	1151.656126	1215.378614	-508.290782	1156.320304	1145.662909	-530.363653	1249.206047	80.890225	-340.76636	1018.295833	925.913462	-174.122286	904.7862229999999	1209.830243	-559.677503	1141.21942	211.50553	-304.26784	820.601808	1251.2769	-143.134286	1104.994563	1037.714565	-469.3267	
